<svg width="220" height="220" viewBox="0 0 220 220" fill="none" xmlns="http://www.w3.org/2000/svg">
<g clip-path="url(#clip0_103_19)">
<g filter="url(#filter0_bii_103_19)">
<rect width="220" height="220" rx="50" fill="white" fill-opacity="0.01"/>
</g>
<g filter="url(#filter1_f_103_19)">
<path d="M180 220H39C47.6636 212.667 73.9576 198 109.825 198C145.692 198 171.553 212.667 180 220Z" fill="url(#paint0_linear_103_19)"/>
</g>
<g filter="url(#filter2_f_103_19)">
<path fill-rule="evenodd" clip-rule="evenodd" d="M92.9784 68.255C97.5105 68.0464 98.9555 68 110.5 68C122.045 68 123.49 68.0502 128.018 68.255C132.546 68.4598 135.637 69.1823 138.341 70.2293C141.173 71.2995 143.743 72.9725 145.868 75.1361C148.031 77.2573 149.7 79.8227 150.767 82.6586C151.818 85.3632 152.536 88.4541 152.745 92.9745C152.954 97.5143 153 98.9593 153 110.5C153 122.045 152.95 123.49 152.745 128.022C152.54 132.542 151.818 135.633 150.767 138.337C149.7 141.174 148.029 143.743 145.868 145.868C143.743 148.031 141.173 149.7 138.341 150.767C135.637 151.818 132.546 152.536 128.025 152.745C123.49 152.954 122.045 153 110.5 153C98.9555 153 97.5105 152.95 92.9784 152.745C88.458 152.54 85.367 151.818 82.6625 150.767C79.8263 149.7 77.2566 148.028 75.1323 145.868C72.9701 143.745 71.2969 141.177 70.2293 138.341C69.1823 135.637 68.4636 132.546 68.255 128.025C68.0464 123.486 68 122.041 68 110.5C68 98.9555 68.0502 97.5105 68.255 92.9823C68.4598 88.4541 69.1823 85.3632 70.2293 82.6586C71.2985 79.823 72.973 77.2546 75.1361 75.1323C77.2574 72.9706 79.8246 71.2974 82.6586 70.2293C85.3632 69.1823 88.4541 68.4636 92.9745 68.255H92.9784ZM127.674 75.905C123.192 75.7002 121.847 75.6577 110.5 75.6577C99.1525 75.6577 97.808 75.7002 93.3261 75.905C89.1805 76.0943 86.9318 76.7859 85.4327 77.3693C83.4507 78.142 82.0327 79.0577 80.5452 80.5452C79.1352 81.917 78.05 83.587 77.3693 85.4327C76.7859 86.9318 76.0943 89.1805 75.905 93.3261C75.7002 97.808 75.6577 99.1525 75.6577 110.5C75.6577 121.847 75.7002 123.192 75.905 127.674C76.0943 131.82 76.7859 134.068 77.3693 135.567C78.0493 137.41 79.135 139.083 80.5452 140.455C81.9168 141.865 83.5898 142.951 85.4327 143.631C86.9318 144.214 89.1805 144.906 93.3261 145.095C97.808 145.3 99.1486 145.342 110.5 145.342C121.851 145.342 123.192 145.3 127.674 145.095C131.82 144.906 134.068 144.214 135.567 143.631C137.549 142.858 138.967 141.942 140.455 140.455C141.865 139.083 142.951 137.41 143.631 135.567C144.214 134.068 144.906 131.82 145.095 127.674C145.3 123.192 145.342 121.847 145.342 110.5C145.342 99.1525 145.3 97.808 145.095 93.3261C144.906 89.1805 144.214 86.9318 143.631 85.4327C142.858 83.4507 141.942 82.0327 140.455 80.5452C139.083 79.1353 137.413 78.0501 135.567 77.3693C134.068 76.7859 131.82 76.0943 127.674 75.905V75.905ZM105.072 123.602C108.103 124.864 111.479 125.034 114.622 124.083C117.765 123.133 120.481 121.121 122.306 118.39C124.13 115.66 124.95 112.381 124.626 109.113C124.301 105.846 122.852 102.792 120.526 100.474C119.043 98.9921 117.251 97.8575 115.277 97.1517C113.303 96.446 111.197 96.1866 109.111 96.3924C107.025 96.5981 105.01 97.2639 103.212 98.3416C101.414 99.4194 99.8779 100.882 98.7132 102.625C97.5486 104.368 96.7848 106.348 96.477 108.421C96.1692 110.495 96.3249 112.611 96.933 114.617C97.5411 116.623 98.5864 118.469 99.9937 120.023C101.401 121.576 103.135 122.799 105.072 123.602ZM95.0532 95.0532C97.0817 93.0247 99.4899 91.4156 102.14 90.3178C104.791 89.2199 107.631 88.6549 110.5 88.6549C113.369 88.6549 116.209 89.2199 118.86 90.3178C121.51 91.4156 123.918 93.0247 125.947 95.0532C127.975 97.0817 129.584 99.4899 130.682 102.14C131.78 104.791 132.345 107.631 132.345 110.5C132.345 113.369 131.78 116.209 130.682 118.86C129.584 121.51 127.975 123.918 125.947 125.947C121.85 130.044 116.294 132.345 110.5 132.345C104.706 132.345 99.1499 130.044 95.0532 125.947C90.9564 121.85 88.6549 116.294 88.6549 110.5C88.6549 104.706 90.9564 99.1499 95.0532 95.0532V95.0532ZM137.19 91.9082C137.693 91.434 138.095 90.8638 138.373 90.2313C138.652 89.5988 138.8 88.9168 138.81 88.2259C138.821 87.5349 138.692 86.8489 138.432 86.2086C138.172 85.5682 137.787 84.9865 137.298 84.4979C136.809 84.0092 136.228 83.6236 135.587 83.3638C134.947 83.104 134.261 82.9754 133.57 82.9854C132.879 82.9955 132.197 83.1441 131.565 83.4225C130.932 83.7008 130.362 84.1032 129.888 84.6059C128.966 85.5835 128.461 86.8821 128.48 88.2259C128.5 89.5697 129.042 90.8529 129.993 91.8033C130.943 92.7536 132.226 93.2961 133.57 93.3157C134.914 93.3353 136.212 92.8304 137.19 91.9082V91.9082Z" fill="url(#paint1_linear_103_19)"/>
</g>
<path d="M140.583 88.7654C136.594 87.8883 132.986 85.7703 130.276 82.7152C127.566 79.6602 125.893 75.8252 125.498 71.7605V70H111.694V124.696C111.697 127.123 110.936 129.489 109.519 131.46C108.103 133.43 106.102 134.905 103.8 135.675C101.499 136.445 99.0133 136.471 96.6959 135.751C94.3785 135.03 92.3467 133.598 90.8883 131.658C89.5817 129.941 88.7816 127.892 88.5785 125.744C88.3755 123.596 88.7775 121.434 89.7391 119.502C90.7007 117.571 92.1836 115.947 94.0201 114.814C95.8565 113.681 97.9733 113.085 100.131 113.092C101.324 113.086 102.512 113.261 103.652 113.613V99.6086C102.325 99.4442 100.988 99.3774 99.6508 99.4085C94.7267 99.5401 89.9477 101.105 85.8992 103.911C81.8507 106.717 78.7083 110.643 76.8569 115.208C75.0056 119.772 74.5255 124.778 75.4755 129.611C76.4255 134.445 78.7644 138.896 82.2058 142.421C85.7328 146.007 90.2461 148.463 95.1723 149.478C100.099 150.493 105.215 150.021 109.872 148.121C114.53 146.221 118.517 142.98 121.328 138.809C124.138 134.638 125.646 129.725 125.658 124.696V96.6877C131.226 100.665 137.902 102.792 144.744 102.769V89.1655C143.4 89.1711 142.059 89.037 140.743 88.7654H140.583Z" fill="url(#paint2_linear_103_19)"/>
</g>
<defs>
<filter id="filter0_bii_103_19" x="-30" y="-30" width="280" height="280" filterUnits="userSpaceOnUse" color-interpolation-filters="sRGB">
<feFlood flood-opacity="0" result="BackgroundImageFix"/>
<feGaussianBlur in="BackgroundImageFix" stdDeviation="15"/>
<feComposite in2="SourceAlpha" operator="in" result="effect1_backgroundBlur_103_19"/>
<feBlend mode="normal" in="SourceGraphic" in2="effect1_backgroundBlur_103_19" result="shape"/>
<feColorMatrix in="SourceAlpha" type="matrix" values="0 0 0 0 0 0 0 0 0 0 0 0 0 0 0 0 0 0 127 0" result="hardAlpha"/>
<feOffset dx="10" dy="10"/>
<feGaussianBlur stdDeviation="2.5"/>
<feComposite in2="hardAlpha" operator="arithmetic" k2="-1" k3="1"/>
<feColorMatrix type="matrix" values="0 0 0 0 1 0 0 0 0 1 0 0 0 0 1 0 0 0 0.1 0"/>
<feBlend mode="normal" in2="shape" result="effect2_innerShadow_103_19"/>
<feColorMatrix in="SourceAlpha" type="matrix" values="0 0 0 0 0 0 0 0 0 0 0 0 0 0 0 0 0 0 127 0" result="hardAlpha"/>
<feOffset dy="-5"/>
<feGaussianBlur stdDeviation="12.5"/>
<feComposite in2="hardAlpha" operator="arithmetic" k2="-1" k3="1"/>
<feColorMatrix type="matrix" values="0 0 0 0 1 0 0 0 0 0 0 0 0 0 0.304527 0 0 0 0.35 0"/>
<feBlend mode="normal" in2="effect2_innerShadow_103_19" result="effect3_innerShadow_103_19"/>
</filter>
<filter id="filter1_f_103_19" x="-11" y="148" width="241" height="122" filterUnits="userSpaceOnUse" color-interpolation-filters="sRGB">
<feFlood flood-opacity="0" result="BackgroundImageFix"/>
<feBlend mode="normal" in="SourceGraphic" in2="BackgroundImageFix" result="shape"/>
<feGaussianBlur stdDeviation="25" result="effect1_foregroundBlur_103_19"/>
</filter>
<filter id="filter2_f_103_19" x="18" y="18" width="185" height="185" filterUnits="userSpaceOnUse" color-interpolation-filters="sRGB">
<feFlood flood-opacity="0" result="BackgroundImageFix"/>
<feBlend mode="normal" in="SourceGraphic" in2="BackgroundImageFix" result="shape"/>
<feGaussianBlur stdDeviation="25" result="effect1_foregroundBlur_103_19"/>
</filter>
<linearGradient id="paint0_linear_103_19" x1="50" y1="209" x2="59.2806" y2="179.984" gradientUnits="userSpaceOnUse">
<stop stop-color="#FF004D"/>
<stop offset="1" stop-color="#AE01FF"/>
</linearGradient>
<linearGradient id="paint1_linear_103_19" x1="110.5" y1="68" x2="110.5" y2="153" gradientUnits="userSpaceOnUse">
<stop stop-color="#FFA800"/>
<stop offset="1" stop-color="#AE01FF"/>
</linearGradient>
<linearGradient id="paint2_linear_103_19" x1="124.199" y1="70" x2="87.9961" y2="146.12" gradientUnits="userSpaceOnUse">
<stop stop-color="#900EB0"/>
<stop offset="1" stop-color="#FF004E"/>
</linearGradient>
<clipPath id="clip0_103_19">
<rect width="220" height="220" fill="white"/>
</clipPath>
</defs>
</svg>
