<svg width="55" height="64" viewBox="0 0 55 64" fill="none" xmlns="http://www.w3.org/2000/svg">
<mask id="mask0_1123_1573" style="mask-type:luminance" maskUnits="userSpaceOnUse" x="0" y="0" width="55" height="64">
<path d="M16.3557 31.543C24.3631 31.543 30.8539 25.0522 30.8539 17.0448C30.8539 9.03739 24.3631 2.54652 16.3557 2.54652C8.34829 2.54652 1.85742 9.03739 1.85742 17.0448C1.85742 25.0522 8.34829 31.543 16.3557 31.543Z" fill="white" stroke="white" stroke-width="3.66987" stroke-linejoin="round"/>
<path d="M30.8547 18.7875C30.875 18.8078 37.7022 27.3936 51.3349 44.5421C51.5659 44.8201 51.6846 45.1743 51.668 45.5353C51.6514 45.8963 51.5005 46.238 51.245 46.4936L45.324 52.4147C45.0684 52.6702 44.7266 52.821 44.3656 52.8377C44.0047 52.8543 43.6505 52.7355 43.3725 52.5046L18.998 31.543M31.5361 32.2244L35.6377 36.326" stroke="white" stroke-width="3.66987" stroke-linecap="round" stroke-linejoin="round"/>
<path d="M17.8057 60.6642C20.585 57.0425 23.9631 55.2317 27.9399 55.2317C33.9074 55.2317 40.9492 62.7273 46.9558 61.6965C52.9639 60.6642 54.6834 54.7402 50.9864 51.4607" stroke="white" stroke-width="3.66987" stroke-linecap="round" stroke-linejoin="round"/>
</mask>
<g mask="url(#mask0_1123_1573)">
<path d="M-6.84082 12.7472C-6.84082 3.91067 0.322625 -3.25278 9.15918 -3.25278H46.7508C55.5873 -3.25278 62.7508 3.91067 62.7508 12.7472V50.3388C62.7508 59.1754 55.5873 66.3388 46.7508 66.3388H9.15918C0.322626 66.3388 -6.84082 59.1754 -6.84082 50.3388V12.7472Z" fill="white"/>
</g>
</svg>
