<svg width="220" height="220" viewBox="0 0 220 220" fill="none" xmlns="http://www.w3.org/2000/svg">
<g clip-path="url(#clip0_103_26)">
<g filter="url(#filter0_bii_103_26)">
<rect width="220" height="220" rx="50" fill="white" fill-opacity="0.01"/>
</g>
<g filter="url(#filter1_f_103_26)">
<path d="M180 220H39C47.6636 212.667 73.9576 198 109.825 198C145.692 198 171.553 212.667 180 220Z" fill="url(#paint0_linear_103_26)"/>
</g>
<g filter="url(#filter2_f_103_26)">
<path fill-rule="evenodd" clip-rule="evenodd" d="M91.8548 83.4274C91.8548 88.0817 88.0817 91.8548 83.4274 91.8548C78.7731 91.8548 75 88.0817 75 83.4274C75 78.7731 78.7731 75 83.4274 75C88.0817 75 91.8548 78.7731 91.8548 83.4274ZM99.8123 144.996V98.241H113.748V104.635H113.944C115.881 100.964 120.619 97.0855 127.687 97.0855C142.408 97.0855 145.119 106.765 145.119 119.36V145H130.595V122.26C130.595 116.841 130.502 109.865 123.042 109.865C115.477 109.865 114.329 115.774 114.329 121.875V144.996H99.8123ZM90.6955 98.241H76.1555V144.996H90.6955V98.241Z" fill="url(#paint1_linear_103_26)"/>
</g>
<path fill-rule="evenodd" clip-rule="evenodd" d="M91.8548 83.4274C91.8548 88.0817 88.0817 91.8548 83.4274 91.8548C78.7731 91.8548 75 88.0817 75 83.4274C75 78.7731 78.7731 75 83.4274 75C88.0817 75 91.8548 78.7731 91.8548 83.4274ZM99.8123 144.996V98.241H113.748V104.635H113.944C115.881 100.964 120.619 97.0855 127.687 97.0855C142.408 97.0855 145.119 106.765 145.119 119.36V145H130.595V122.26C130.595 116.841 130.502 109.865 123.042 109.865C115.477 109.865 114.329 115.774 114.329 121.875V144.996H99.8123ZM90.6955 98.241H76.1555V144.996H90.6955V98.241Z" fill="url(#paint2_linear_103_26)"/>
</g>
<defs>
<filter id="filter0_bii_103_26" x="-30" y="-30" width="280" height="280" filterUnits="userSpaceOnUse" color-interpolation-filters="sRGB">
<feFlood flood-opacity="0" result="BackgroundImageFix"/>
<feGaussianBlur in="BackgroundImageFix" stdDeviation="15"/>
<feComposite in2="SourceAlpha" operator="in" result="effect1_backgroundBlur_103_26"/>
<feBlend mode="normal" in="SourceGraphic" in2="effect1_backgroundBlur_103_26" result="shape"/>
<feColorMatrix in="SourceAlpha" type="matrix" values="0 0 0 0 0 0 0 0 0 0 0 0 0 0 0 0 0 0 127 0" result="hardAlpha"/>
<feOffset dx="10" dy="10"/>
<feGaussianBlur stdDeviation="2.5"/>
<feComposite in2="hardAlpha" operator="arithmetic" k2="-1" k3="1"/>
<feColorMatrix type="matrix" values="0 0 0 0 1 0 0 0 0 1 0 0 0 0 1 0 0 0 0.1 0"/>
<feBlend mode="normal" in2="shape" result="effect2_innerShadow_103_26"/>
<feColorMatrix in="SourceAlpha" type="matrix" values="0 0 0 0 0 0 0 0 0 0 0 0 0 0 0 0 0 0 127 0" result="hardAlpha"/>
<feOffset dy="-5"/>
<feGaussianBlur stdDeviation="12.5"/>
<feComposite in2="hardAlpha" operator="arithmetic" k2="-1" k3="1"/>
<feColorMatrix type="matrix" values="0 0 0 0 0 0 0 0 0 0.980392 0 0 0 0 0.980392 0 0 0 0.35 0"/>
<feBlend mode="normal" in2="effect2_innerShadow_103_26" result="effect3_innerShadow_103_26"/>
</filter>
<filter id="filter1_f_103_26" x="-11" y="148" width="241" height="122" filterUnits="userSpaceOnUse" color-interpolation-filters="sRGB">
<feFlood flood-opacity="0" result="BackgroundImageFix"/>
<feBlend mode="normal" in="SourceGraphic" in2="BackgroundImageFix" result="shape"/>
<feGaussianBlur stdDeviation="25" result="effect1_foregroundBlur_103_26"/>
</filter>
<filter id="filter2_f_103_26" x="25" y="25" width="170.119" height="170" filterUnits="userSpaceOnUse" color-interpolation-filters="sRGB">
<feFlood flood-opacity="0" result="BackgroundImageFix"/>
<feBlend mode="normal" in="SourceGraphic" in2="BackgroundImageFix" result="shape"/>
<feGaussianBlur stdDeviation="25" result="effect1_foregroundBlur_103_26"/>
</filter>
<linearGradient id="paint0_linear_103_26" x1="50" y1="209" x2="59.2806" y2="179.984" gradientUnits="userSpaceOnUse">
<stop stop-color="#1DA1F2"/>
<stop offset="1" stop-color="#00FAFA"/>
</linearGradient>
<linearGradient id="paint1_linear_103_26" x1="139.989" y1="70.5654" x2="69.4905" y2="124.117" gradientUnits="userSpaceOnUse">
<stop stop-color="#0A66C2"/>
<stop offset="1" stop-color="#0AC2C2"/>
</linearGradient>
<linearGradient id="paint2_linear_103_26" x1="139.989" y1="70.5654" x2="69.4905" y2="124.117" gradientUnits="userSpaceOnUse">
<stop stop-color="#0A66C2"/>
<stop offset="1" stop-color="#0AC2C2"/>
</linearGradient>
<clipPath id="clip0_103_26">
<rect width="220" height="220" fill="white"/>
</clipPath>
</defs>
</svg>
