<svg width="189" height="191" viewBox="0 0 189 191" fill="none" xmlns="http://www.w3.org/2000/svg">
<g clip-path="url(#clip0_1126_3884)">
<path d="M42.2951 31.8972L40.8574 39.4452L48.0253 41.466L47.1347 33.4076L42.2951 31.8972Z" fill="#A0616A"/>
<path d="M0 188.142C0 188.379 0.190509 188.569 0.427743 188.569H188.154C188.392 188.569 188.582 188.379 188.582 188.142C188.582 187.904 188.392 187.714 188.154 187.714H0.427743C0.190509 187.714 0 187.904 0 188.142Z" fill="#3F3D56"/>
<path d="M127.97 85.6553H54.0469C45.6639 85.6553 38.8682 92.451 38.8682 100.834V172.516C38.8682 180.899 45.6639 187.695 54.0468 187.695H127.97C136.353 187.695 143.149 180.899 143.149 172.516V100.834C143.149 92.451 136.353 85.6553 127.97 85.6553Z" fill="white"/>
<path d="M127.971 188.054H54.0469C45.4792 188.054 38.5088 181.084 38.5088 172.516V100.834C38.5088 92.2663 45.4792 85.2959 54.0469 85.2959H127.971C136.538 85.2959 143.509 92.2663 143.509 100.834V172.516C143.509 181.084 136.538 188.054 127.971 188.054ZM54.0469 86.0148C45.8755 86.0148 39.2276 92.6626 39.2276 100.834V172.516C39.2276 180.688 45.8755 187.335 54.0469 187.335H127.971C136.142 187.335 142.79 180.688 142.79 172.516V100.834C142.79 92.6626 136.142 86.0148 127.971 86.0148L54.0469 86.0148Z" fill="#3F3D56"/>
<path d="M133.325 116.732H103.612C102.352 116.732 101.326 115.707 101.326 114.446C101.326 113.186 102.352 112.161 103.612 112.161H133.325C134.585 112.161 135.611 113.186 135.611 114.446C135.611 115.707 134.585 116.732 133.325 116.732Z" fill="white"/>
<path d="M105.449 134.706H76.5667C75.8386 134.706 75.2461 134.114 75.2461 133.386C75.2461 132.657 75.8386 132.065 76.5667 132.065H105.449C106.178 132.065 106.77 132.657 106.77 133.386C106.77 134.114 106.178 134.706 105.449 134.706Z" fill="white"/>
<path d="M64.6277 90.5645H48.1379C48.0763 90.5645 48.0264 90.6144 48.0264 90.676V92.5956C48.0264 92.6572 48.0763 92.7071 48.1379 92.7071H64.6277C64.6892 92.7071 64.7392 92.6572 64.7392 92.5956V90.676C64.7392 90.6144 64.6892 90.5645 64.6277 90.5645Z" fill="white"/>
<path d="M120.171 92.7071C121.118 92.7071 121.885 91.9396 121.885 90.9929C121.885 90.0463 121.118 89.2788 120.171 89.2788C119.224 89.2788 118.457 90.0463 118.457 90.9929C118.457 91.9396 119.224 92.7071 120.171 92.7071Z" fill="#3F3D56"/>
<path d="M124.884 92.7071C125.831 92.7071 126.598 91.9396 126.598 90.9929C126.598 90.0463 125.831 89.2788 124.884 89.2788C123.937 89.2788 123.17 90.0463 123.17 90.9929C123.17 91.9396 123.937 92.7071 124.884 92.7071Z" fill="#3F3D56"/>
<path d="M129.599 92.7071C130.546 92.7071 131.313 91.9396 131.313 90.9929C131.313 90.0463 130.546 89.2788 129.599 89.2788C128.652 89.2788 127.885 90.0463 127.885 90.9929C127.885 91.9396 128.652 92.7071 129.599 92.7071Z" fill="#3F3D56"/>
<path d="M53.8672 141.775C53.8672 142.012 54.0577 142.203 54.2949 142.203H127.723C127.96 142.203 128.151 142.012 128.151 141.775C128.151 141.538 127.96 141.347 127.723 141.347H54.2949C54.0577 141.347 53.8672 141.538 53.8672 141.775Z" fill="#3F3D56"/>
<path d="M76.261 36.2728C77.8242 34.9811 79.7578 34.7407 80.5797 35.7357C81.4016 36.7307 80.8005 38.584 79.2365 39.8759C78.6189 40.4005 77.8845 40.7696 77.095 40.9523L70.4025 46.3415L67.9404 43.147L74.7995 38.1733C75.1279 37.4322 75.629 36.7805 76.261 36.2728Z" fill="#A0616A"/>
<path d="M37.5784 48.4321C37.575 48.1938 37.5773 46.1148 39.1164 44.8008C40.8844 43.2914 43.3791 43.9023 44.2541 44.1166C46.2754 44.6116 46.4412 45.4787 48.3394 46.3696C51.8908 48.0365 47.4411 47.1833 49.5542 46.6488C50.2857 46.4638 60.8088 45.734 63.4282 44.1218C68.5225 40.9863 71.9937 39.085 71.9937 39.085L74.2628 43.6233C74.2628 43.6233 70.9816 48.1857 66.3636 51.5657C61.6266 55.0327 59.2581 56.7662 55.6586 57.436C55.3486 57.4937 47.7251 58.7953 41.585 54.208C40.1845 53.1617 37.6184 51.2445 37.5784 48.4321Z" fill="#E6E6E6"/>
<path d="M44.6187 36.8904C48.9844 36.8904 52.5235 33.3513 52.5235 28.9856C52.5235 24.6199 48.9844 21.0808 44.6187 21.0808C40.253 21.0808 36.7139 24.6199 36.7139 28.9856C36.7139 33.3513 40.253 36.8904 44.6187 36.8904Z" fill="#A0616A"/>
<path d="M106.526 82.0934L98.385 73.7603L94.1826 78.1438L100.248 86.1338L106.264 86.8219L106.526 82.0934Z" fill="#A0616A"/>
<path d="M60.0404 66.4667C60.5166 66.5063 62.0298 66.8095 63.4761 66.0137C64.4631 65.4707 64.9693 64.6632 65.1403 64.4064C67.2614 61.2207 75.4028 56.2529 82.7095 55.9472C84.3642 55.878 85.4533 56.0697 86.4433 56.5857C87.847 57.3174 88.4074 58.3656 90.1886 60.8209C91.163 62.1639 92.2411 63.4292 93.2272 64.7637C99.0004 72.5763 101.189 73.1897 100.965 75.6943C100.717 78.4733 97.72 81.1099 95.728 80.8055C94.9122 80.6809 94.5963 80.1136 93.5064 78.9653C90.3106 75.5982 88.9885 76.2203 86.7132 73.6413C84.0568 70.6304 84.4046 68.1338 83.0187 68.0373C81.7334 67.9479 81.1873 70.0777 78.4435 72.907C77.1879 74.2016 76.2939 74.7955 73.5701 76.6851C62.9631 84.0437 62.7938 84.5608 60.6532 85.1477C59.7166 85.4045 53.0694 87.2269 50.7015 84.3267C46.9959 79.7883 55.75 66.1103 60.0404 66.4667Z" fill="#2F2E41"/>
<path d="M104.037 83.9765C104.635 83.7077 105.335 83.3933 105.561 82.6704C105.713 82.1813 105.625 81.5782 105.31 81.1614C104.947 80.6805 104.409 80.6171 104.431 80.5321C104.464 80.4025 105.736 80.4531 107.133 80.9468C107.396 81.04 108.59 81.4762 110.109 82.6619C111.325 83.6118 111.162 83.8023 111.925 84.35C114.267 86.0313 116.464 84.7062 117.731 86.283C118.22 86.8915 118.429 87.7555 118.223 88.4541C117.81 89.8571 115.799 90.3399 114.701 90.5891C112.055 91.1895 110.052 90.6994 107.961 90.347C100.849 89.1486 96.853 90.2401 96.3182 88.5924C96.217 88.2806 96.3814 88.3072 96.9298 86.0188C97.471 83.7602 97.4532 83.1399 97.9142 82.9591C98.608 82.6868 99.0739 83.9252 100.822 84.3491C102.371 84.7246 103.649 84.1507 104.037 83.9765Z" fill="#2F2E41"/>
<path d="M92.0532 109.354L89.9964 97.8872L84.0576 99.1546L84.5896 109.172L89.1813 113.119L92.0532 109.354Z" fill="#A0616A"/>
<path d="M62.3645 70.321C62.7363 70.6211 63.8181 71.7217 65.4617 71.8754C66.5833 71.9803 67.4557 71.5964 67.7413 71.48C71.2853 70.035 80.8116 70.4962 87.0292 74.3462C88.4372 75.2181 89.2307 75.9883 89.7601 76.9712C90.5107 78.3649 90.3859 79.5468 90.481 82.5787C90.5331 84.2372 90.7147 85.8895 90.7813 87.5475C91.1712 97.2539 92.6377 98.9904 91.0462 100.937C89.2803 103.097 85.3198 103.596 83.8425 102.226C83.2374 101.664 83.2945 101.018 83.0375 99.4553C82.2839 94.8748 80.8406 94.647 80.4061 91.2354C79.8988 87.2523 81.5885 85.3818 80.4959 84.5238C79.4826 83.7281 77.8348 85.1837 73.9756 85.984C72.2098 86.3502 71.1365 86.3396 67.8216 86.3737C54.9127 86.5063 54.4823 86.8391 52.3815 86.1227C51.4623 85.8093 44.9387 83.5845 44.6079 79.8551C44.0902 74.019 59.0145 67.6168 62.3645 70.321Z" fill="#2F2E41"/>
<path d="M88.9369 109.515C89.5833 109.628 90.3391 109.761 90.9314 109.29C91.3322 108.97 91.5982 108.422 91.5716 107.9C91.5409 107.298 91.1313 106.944 91.1971 106.886C91.2972 106.797 92.3215 107.553 93.1998 108.746C93.3656 108.971 94.1085 110.002 94.6994 111.836C95.1728 113.306 94.9304 113.371 95.2541 114.253C96.248 116.959 98.8099 117.096 98.9731 119.113C99.0361 119.891 98.7236 120.723 98.161 121.186C97.0311 122.114 95.0967 121.385 94.0476 120.974C91.5211 119.985 90.1392 118.455 88.6066 116.989C83.3948 112.004 79.4755 110.663 79.9582 109C80.0495 108.685 80.1707 108.799 81.9094 107.214C83.6256 105.649 83.9592 105.125 84.4421 105.235C85.1691 105.399 84.8592 106.685 86.0675 108.017C87.1382 109.198 88.518 109.441 88.9369 109.515Z" fill="#2F2E41"/>
<path d="M45.6967 30.4967C46.0044 29.3959 45.6179 28.9947 46.0119 28.5006C46.0119 28.5006 46.1704 28.3017 47.5877 27.7652C47.1696 25.3389 47.4827 24.9286 47.4827 24.9286C47.8435 24.4557 48.5664 24.3414 49.0585 24.4033C50.0994 24.5341 50.2836 25.475 50.9496 25.4539C51.8696 25.4247 52.973 23.5831 52.6305 21.9869C52.3512 20.6849 51.1465 19.718 50.8446 19.8858C50.5451 20.0521 49.4673 19.3186 49.0586 19.4655C48.7794 19.5659 47.4654 19.4324 47.1675 19.5706C46.8421 19.7215 45.9103 20.6614 45.8213 20.543C45.2022 19.7201 45.2154 19.4328 44.8562 19.2554C44.2198 18.9412 43.5279 19.522 42.3348 20.0959C39.88 21.2766 39.1612 20.5723 38.0274 21.5667C37.4546 22.069 37.1475 23.0291 36.5566 24.9286C35.7302 27.5851 35.317 28.9133 35.7161 30.1815C36.1231 31.4749 36.7225 31.1934 37.6072 33.0181C38.5919 35.0493 38.2525 36.23 39.183 36.6952C39.9022 37.0547 41.058 36.8259 41.4943 36.1699C42.2414 35.0467 40.3104 33.5274 40.969 31.7574C41.3733 30.6709 42.6205 29.8471 43.3854 30.0765C44.2502 30.3359 44.3139 31.8865 44.8562 31.8625C45.3206 31.8419 45.643 30.6885 45.6967 30.4967Z" fill="#2F2E41"/>
<path d="M39.7073 38.0609C41.3249 36.2471 47.9138 38.1244 48.5322 41.0025C48.7866 42.1863 47.8475 42.6862 48.112 44.0492C48.4987 46.0429 50.6887 45.907 52.3143 47.9364C54.6221 50.8176 52.2446 53.634 54.8357 58.4423C55.3894 59.4697 55.8561 60.3357 56.8318 61.1738C59.0709 63.097 61.1548 62.4374 62.2949 64.2205C63.1475 65.5539 62.7972 67.1974 62.7151 67.5824C62.3786 69.161 61.4667 69.5457 60.8241 70.8392C59.7549 72.9913 60.9654 74.5714 61.0342 77.1427C61.1202 80.36 59.4105 84.8196 55.9914 86.2828C52.1501 87.9267 47.5172 85.2041 45.2754 82.5007C43.9376 80.8876 43.5493 79.3996 42.9641 77.563C40.3485 69.3545 38.8709 70.0969 36.8707 63.5901C34.5841 56.1517 34.1346 47.4372 36.8707 44.6796C37.2333 44.3141 38.2314 43.4692 38.8668 41.948C39.7218 39.9011 38.9832 38.8728 39.7073 38.0609Z" fill="#E6E6E6"/>
<path d="M63.6102 80.2822C64.8643 81.8757 65.0588 83.8144 64.0445 84.6124C63.0303 85.4104 61.1918 84.7654 59.9374 83.1712C59.4276 82.5413 59.0761 81.7984 58.9122 81.0047L53.6836 74.186L56.3853 72.1252L61.7449 78.7759C62.4781 79.1218 63.1177 79.6384 63.6102 80.2822Z" fill="#A0616A"/>
<path d="M44.4605 44.9732C44.6931 44.9212 46.7288 44.4992 48.3292 45.7378C50.1676 47.1606 50.0786 49.7276 50.0474 50.6279C49.9752 52.7077 49.1602 53.0469 48.6753 55.087C47.7682 58.9037 49.4957 62.4507 50.4502 64.4103C50.7805 65.0887 51.8419 67.1643 53.9547 69.3996C58.0637 73.747 61.73 76.0346 61.73 76.0346L57.7914 79.5356C57.7914 79.5356 51.5175 77.6234 47.2664 73.7922C42.9057 69.8622 36.1998 55.9576 34.8096 52.5705C34.6899 52.2788 36.3857 57.021 39.6237 50.0741C40.3622 48.4895 41.7154 45.5862 44.4605 44.9732Z" fill="#E6E6E6"/>
<path d="M98.4637 151.567C95.9603 151.95 94.129 153.553 94.3735 155.146C94.6179 156.739 96.8453 157.719 99.3496 157.335C100.352 157.196 101.306 156.818 102.133 156.234L112.72 154.474L112.013 150.289L101.45 151.784C100.486 151.474 99.4623 151.399 98.4637 151.567Z" fill="#FFB6B6"/>
<path d="M144.084 138.523L139.979 147.233L119.342 154.18L102.218 155.094L101.789 150.981L120.348 147.1L139.391 138.101L144.084 138.523Z" fill="#E6E6E6"/>
<path d="M106.023 171.598L102.338 180.92L97.5684 177.668L100.387 167.912L106.023 171.598Z" fill="#FFB6B6"/>
<path d="M90.6317 168.129L80.876 177.451L84.7782 181.57L94.7507 173.766L90.6317 168.129Z" fill="#FFB6B6"/>
<path d="M145.913 137.778L145.804 137.019L143.311 132.141L135.073 134.309L136.591 141.03L145.913 137.778Z" fill="#FFB6B6"/>
<path d="M142.445 170.297L142.698 173.553C142.698 173.553 143.745 187.206 135.29 188.29C126.835 189.374 123.15 190.458 118.164 182.003L110.359 168.129L105.801 173.553L99.7363 168.779C99.7363 168.779 104.072 151.869 107.541 151.219C107.974 151.138 108.408 151.097 108.835 151.088C111.706 151.028 114.413 152.433 116.132 154.734L125.968 167.912L129.545 166.286L142.445 170.297Z" fill="#2F2E41"/>
<path d="M95.6164 180.486L97.5675 176.801L103.204 180.703C103.204 180.703 104.505 185.472 102.554 186.123C100.603 186.773 95.1828 185.906 95.1828 185.906C95.1828 185.906 85.2103 188.074 84.9935 186.123C84.7767 184.172 89.5462 183.738 89.5462 183.738L95.6164 180.486Z" fill="#2F2E41"/>
<path d="M116.863 177.885L101.796 168.391L94.0995 175.283L88.8965 169.213C88.8965 169.213 98.4354 155.121 101.254 154.471C104.072 153.821 108.625 153.387 108.625 153.387L122.499 166.178L116.863 177.885Z" fill="#2F2E41"/>
<path d="M80.6584 176.584L85.6446 182.004L84.987 182.566C84.987 182.566 83.6935 188.2 80.6584 186.294C77.6233 184.388 77.4065 183.955 77.4065 183.955C77.4065 183.955 68.7348 185.906 67.8676 182.437C67.0004 178.968 69.3851 179.619 69.3851 179.619L71.5505 180.92L80.6584 176.584Z" fill="#2F2E41"/>
<path d="M137.675 136.694C141.506 136.694 144.612 133.588 144.612 129.756C144.612 125.925 141.506 122.819 137.675 122.819C133.843 122.819 130.737 125.925 130.737 129.756C130.737 133.588 133.843 136.694 137.675 136.694Z" fill="#FFB6B6"/>
<path d="M136.048 139.621L146.021 136.585C146.021 136.585 149.923 145.691 149.272 149.81C148.622 153.929 142.697 173.553 142.697 173.553L129.544 166.286C129.544 166.286 129.327 161.95 128.677 159.999C128.027 158.048 125.967 152.086 130.52 147.1C135.072 142.114 136.048 139.621 136.048 139.621Z" fill="#E6E6E6"/>
<path d="M114.1 185.143C112.477 187.087 112.165 189.501 113.403 190.534C114.64 191.566 116.959 190.827 118.582 188.882C119.241 188.114 119.707 187.199 119.94 186.214L126.712 177.889L123.413 175.219L116.483 183.329C115.555 183.735 114.738 184.357 114.1 185.143Z" fill="#FFB6B6"/>
<path d="M143.699 143.994L146.056 153.331L134.519 171.798L122.742 183.635L118.925 180.468L130.802 165.689L139.805 146.647L143.699 143.994Z" fill="#E6E6E6"/>
<path d="M131.28 128.564C133.059 128.56 133.16 128.572 133.448 128.564C135.654 128.506 136.231 127.638 137.35 127.697C139.346 127.803 136.711 137.812 135.616 142.439C134.541 146.977 138.173 151.044 138.434 151.328C142.12 155.337 148.596 156.07 149.707 154.363C150.606 152.981 147.419 150.879 148.189 147.859C148.943 144.906 152.42 145.221 153.393 142.439C154.411 139.526 150.989 138.057 148.84 130.949C147.605 126.867 147.824 126.106 146.672 123.578C143.593 116.82 128.501 119.697 130.196 125.963C130.523 127.175 129.651 128.568 131.28 128.564Z" fill="#2F2E41"/>
<path d="M153.431 46.2086H80.5206C78.4587 46.2086 76.7812 44.5311 76.7812 42.4693V3.73933C76.7812 1.67758 78.4587 0 80.5206 0H153.431C155.493 0 157.17 1.67757 157.17 3.73933V42.4693C157.17 44.5311 155.493 46.2086 153.431 46.2086Z" fill="white"/>
<path d="M153.431 46.2086H80.5206C78.4587 46.2086 76.7812 44.5311 76.7812 42.4693V3.73933C76.7812 1.67758 78.4587 0 80.5206 0H153.431C155.493 0 157.17 1.67757 157.17 3.73933V42.4693C157.17 44.5311 155.493 46.2086 153.431 46.2086ZM80.5206 0.624441C78.8031 0.624441 77.4057 2.02181 77.4057 3.73933V42.4693C77.4057 44.1868 78.8031 45.5842 80.5206 45.5842H153.431C155.149 45.5842 156.546 44.1868 156.546 42.4693V3.73933C156.546 2.02181 155.149 0.624441 153.431 0.624441H80.5206Z" fill="#3F3D56"/>
<path d="M147.804 4.68338C148.321 4.68338 148.741 4.26402 148.741 3.74672C148.741 3.22942 148.321 2.81006 147.804 2.81006C147.287 2.81006 146.867 3.22942 146.867 3.74672C146.867 4.26402 147.287 4.68338 147.804 4.68338Z" fill="#3F3D56"/>
<path d="M150.302 4.68338C150.819 4.68338 151.239 4.26402 151.239 3.74672C151.239 3.22942 150.819 2.81006 150.302 2.81006C149.785 2.81006 149.365 3.22942 149.365 3.74672C149.365 4.26402 149.785 4.68338 150.302 4.68338Z" fill="#3F3D56"/>
<path d="M152.799 4.68338C153.316 4.68338 153.736 4.26402 153.736 3.74672C153.736 3.22942 153.316 2.81006 152.799 2.81006C152.282 2.81006 151.862 3.22942 151.862 3.74672C151.862 4.26402 152.282 4.68338 152.799 4.68338Z" fill="#3F3D56"/>
<path d="M82.0894 18.8894C81.8312 18.8894 81.6211 19.0995 81.6211 19.3577C81.6211 19.4837 81.6697 19.6001 81.758 19.6861C81.847 19.7773 81.9636 19.8261 82.0894 19.8261H152.175C152.434 19.8261 152.644 19.616 152.644 19.3577C152.644 19.2318 152.595 19.1153 152.507 19.0294C152.418 18.9382 152.301 18.8894 152.175 18.8894H82.0894Z" fill="#E6E6E6"/>
<path d="M143.433 18.7332V19.982H82.0893C81.9176 19.982 81.7615 19.9133 81.6491 19.7978C81.5335 19.6854 81.4648 19.5293 81.4648 19.3576C81.4648 19.0141 81.7458 18.7332 82.0893 18.7332H143.433Z" fill="white"/>
<path d="M151.394 16.3916H145.149C144.461 16.3916 143.9 15.8315 143.9 15.1427C143.9 14.4539 144.461 13.8938 145.149 13.8938H151.394C152.082 13.8938 152.643 14.4539 152.643 15.1427C152.643 15.8315 152.082 16.3916 151.394 16.3916Z" fill="#E6E6E6"/>
<path d="M110.494 9.83492H82.5575C81.8688 9.83492 81.3086 9.27482 81.3086 8.58604C81.3086 7.89727 81.8689 7.33716 82.5575 7.33716H110.494C111.182 7.33716 111.743 7.89727 111.743 8.58604C111.743 9.27482 111.182 9.83492 110.494 9.83492Z" fill="#E6E6E6"/>
<path d="M82.0894 32.9392C81.8312 32.9392 81.6211 33.1493 81.6211 33.4075C81.6211 33.5335 81.6697 33.6499 81.758 33.7359C81.847 33.8271 81.9636 33.8759 82.0894 33.8759H152.175C152.434 33.8759 152.644 33.6658 152.644 33.4075C152.644 33.2816 152.595 33.1651 152.507 33.0792C152.418 32.988 152.301 32.9392 152.175 32.9392H82.0894Z" fill="#E6E6E6"/>
<path d="M119.392 32.7832V34.0321H82.0893C81.9176 34.0321 81.7615 33.9634 81.6491 33.8479C81.5335 33.7355 81.4648 33.5794 81.4648 33.4076C81.4648 33.0642 81.7458 32.7832 82.0893 32.7832H119.392Z" fill="white"/>
<path d="M151.394 30.4414H145.149C144.461 30.4414 143.9 29.8813 143.9 29.1925C143.9 28.5037 144.461 27.9436 145.149 27.9436H151.394C152.082 27.9436 152.643 28.5037 152.643 29.1925C152.643 29.8813 152.082 30.4414 151.394 30.4414Z" fill="#E6E6E6"/>
</g>
<defs>
<clipPath id="clip0_1126_3884">
<rect width="188.582" height="191" fill="white"/>
</clipPath>
</defs>
</svg>
