<svg id="SvgjsSvg1023" width="288" height="288" xmlns="http://www.w3.org/2000/svg" version="1.1" xmlns:xlink="http://www.w3.org/1999/xlink" xmlns:svgjs="http://svgjs.com/svgjs"><defs id="SvgjsDefs1024"></defs><g id="SvgjsG1025"><svg xmlns="http://www.w3.org/2000/svg" viewBox="0 0 256 256" width="288" height="288"><path fill="#02e5e5" d="M234.36 170a12 12 0 0 1-4.36 16.37l-96 56a12 12 0 0 1-12.1 0l-96-56a12 12 0 0 1 12.09-20.74l90 52.48L218 165.63a12 12 0 0 1 16.36 4.37ZM218 117.63l-90 52.48l-89.95-52.48A12 12 0 0 0 26 138.37l96 56a12 12 0 0 0 12.1 0l96-56a12 12 0 0 0-12.1-20.74ZM20 80a12 12 0 0 1 6-10.37l96-56a12.06 12.06 0 0 1 12.1 0l96 56a12 12 0 0 1 0 20.74l-96 56a12 12 0 0 1-12.1 0l-96-56A12 12 0 0 1 20 80Zm35.82 0L128 122.11L200.18 80L128 37.89Z" class="colorfff svgShape"></path></svg></g></svg>