<svg width="1090" height="887" viewBox="0 0 1090 887" fill="none" xmlns="http://www.w3.org/2000/svg">
<g filter="url(#filter0_f_1313_107)">
<path fill-rule="evenodd" clip-rule="evenodd" d="M460.686 297.337C470.089 274.124 478.489 244.361 508.103 243.477C537.695 242.594 562.773 275.655 591.366 293.437C623.505 313.424 672.209 321.083 683.329 352.447C694.445 383.802 652.843 395.196 635.052 416.662C619.437 435.504 613.861 462.646 586.992 468.689C555.56 475.758 513.036 475.959 483.752 450.691C455.12 425.985 465.623 391.071 460.938 359.921C457.581 337.606 453.093 316.084 460.686 297.337Z" fill="url(#paint0_linear_1313_107)" fill-opacity="0.6"/>
<path fill-rule="evenodd" clip-rule="evenodd" d="M622.439 468.688C631.842 445.475 640.242 415.712 669.855 414.828C699.448 413.945 724.526 447.006 753.119 464.788C785.258 484.774 833.962 492.434 845.081 523.798C856.197 555.153 814.596 566.547 796.805 588.013C781.19 606.855 775.614 633.997 748.745 640.04C717.312 647.109 674.789 647.309 645.505 622.041C616.873 597.335 627.376 562.422 622.69 531.271C619.334 508.957 614.846 487.435 622.439 468.688Z" fill="url(#paint1_linear_1313_107)" fill-opacity="0.6"/>
<path fill-rule="evenodd" clip-rule="evenodd" d="M247.873 468.688C257.276 445.475 265.676 415.712 295.29 414.828C324.882 413.945 349.96 447.006 378.553 464.788C410.692 484.774 459.396 492.434 470.516 523.798C481.632 555.153 440.03 566.547 422.239 588.013C406.624 606.855 401.048 633.997 374.179 640.04C342.747 647.109 300.223 647.309 270.939 622.041C242.307 597.335 252.81 562.422 248.125 531.271C244.768 508.957 240.28 487.435 247.873 468.688Z" fill="url(#paint2_linear_1313_107)" fill-opacity="0.6"/>
</g>
<defs>
<filter id="filter0_f_1313_107" x="0.944717" y="0.689896" width="1088.77" height="886.221" filterUnits="userSpaceOnUse" color-interpolation-filters="sRGB">
<feFlood flood-opacity="0" result="BackgroundImageFix"/>
<feBlend mode="normal" in="SourceGraphic" in2="BackgroundImageFix" result="shape"/>
<feGaussianBlur stdDeviation="121.385" result="effect1_foregroundBlur_1313_107"/>
</filter>
<linearGradient id="paint0_linear_1313_107" x1="532.439" y1="268.688" x2="540.749" y2="741.042" gradientUnits="userSpaceOnUse">
<stop stop-color="#FF00D7"/>
<stop offset="1" stop-color="#02E5E5"/>
</linearGradient>
<linearGradient id="paint1_linear_1313_107" x1="532.439" y1="268.688" x2="540.749" y2="741.042" gradientUnits="userSpaceOnUse">
<stop stop-color="#FF00D7"/>
<stop offset="1" stop-color="#02E5E5"/>
</linearGradient>
<linearGradient id="paint2_linear_1313_107" x1="532.439" y1="268.688" x2="540.749" y2="741.042" gradientUnits="userSpaceOnUse">
<stop stop-color="#FF00D7"/>
<stop offset="1" stop-color="#02E5E5"/>
</linearGradient>
</defs>
</svg>
