<svg width="248" height="132" viewBox="0 0 248 132" fill="none" xmlns="http://www.w3.org/2000/svg">
<g filter="url(#filter0_d_1213_286)">
<g clip-path="url(#clip0_1213_286)">
<path d="M40.9756 114.827C42.9399 122.085 49.6657 126.579 49.6657 126.579C49.6657 126.579 53.2067 119.306 51.2424 112.049C49.278 104.791 42.5522 100.297 42.5522 100.297C42.5522 100.297 39.0112 107.57 40.9756 114.827Z" fill="#3F3D56"/>
<path d="M43.8601 113.267C49.2485 118.511 49.9075 126.573 49.9075 126.573C49.9075 126.573 41.8303 126.133 36.442 120.889C31.0536 115.645 30.3945 107.583 30.3945 107.583C30.3945 107.583 38.4717 108.023 43.8601 113.267Z" fill="white"/>
<path d="M68.5128 -6.51663L4.00098 -6.50861L4.009 58.0033L68.5209 57.9952L68.5128 -6.51663Z" fill="#3F3D56"/>
<path d="M68.5154 9.53361L68.5156 11.0143C67.5323 10.363 66.7386 9.46351 66.2146 8.40688C65.3555 6.65041 65.3825 4.62566 65.4095 2.66699C65.4403 0.339122 65.4711 -1.85663 63.9941 -3.28658C62.3695 -4.85644 59.7696 -4.6346 57.2552 -4.42053C56.9599 -4.39717 56.6645 -4.36995 56.373 -4.3466C53.8509 -4.15584 51.041 -4.79284 49.6768 -6.51428L51.3789 -6.51449C52.6265 -5.67523 54.5347 -5.38011 56.2874 -5.51247C56.5711 -5.53193 56.8626 -5.55917 57.154 -5.58253C59.8006 -5.80824 62.8007 -6.06512 64.8024 -4.12613C66.6447 -2.34645 66.61 0.210722 66.5753 2.68238C66.5484 4.50505 66.5253 6.386 67.2639 7.89375C67.5703 8.51666 67.9954 9.07372 68.5154 9.53361Z" fill="white"/>
<path d="M68.5146 19.7739L68.5148 21.5072C68.2317 21.1373 67.9142 20.7951 67.5665 20.4852C65.5609 18.7172 62.6812 18.3289 59.8986 17.9484C59.5371 17.9018 59.1835 17.8514 58.8298 17.8009C54.3178 17.1524 51.5195 15.6022 50.2795 13.0724C49.4204 11.3159 49.4473 9.29114 49.4743 7.33247C49.5051 5.0046 49.5359 2.80886 48.059 1.3789C46.4343 -0.190962 43.8344 0.0308819 41.3201 0.244958C41.0247 0.268311 40.7294 0.295528 40.4379 0.31888C37.1968 0.564109 33.4775 -0.558528 32.968 -3.59363C32.793 -4.63515 33.0533 -5.59118 33.4379 -6.51227L34.7126 -6.51243C34.2852 -5.58745 33.9666 -4.69357 34.1183 -3.78808C34.5033 -1.47194 37.6202 -0.640661 40.3522 -0.846984C40.6359 -0.866448 40.9274 -0.893691 41.2189 -0.917043C43.8654 -1.14276 46.8655 -1.39964 48.8672 0.539353C50.7095 2.31904 50.6748 4.8762 50.6402 7.34786C50.6132 9.17053 50.5901 11.0515 51.3287 12.5592C52.386 14.7199 54.8928 16.0564 58.9968 16.6466C59.3465 16.6971 59.7002 16.7476 60.0539 16.7942C63.0075 17.1941 66.066 17.6095 68.3397 19.6107C68.398 19.6612 68.4563 19.7156 68.5146 19.7739Z" fill="white"/>
<path d="M68.5184 48.9908L68.5187 51.3847C67.1156 49.8925 65.9417 47.8446 65.0436 45.2837C64.8531 44.7397 64.6704 44.1839 64.4877 43.6282C63.4808 40.5854 62.4389 37.4416 59.9592 35.4327C57.3085 33.2878 53.5116 32.8142 49.839 32.356C49.3687 32.2978 48.8985 32.2395 48.4321 32.1774C42.4783 31.3893 38.79 29.5127 37.1535 26.4427C36.0185 24.3093 36.0531 21.8532 36.0878 19.4787C36.1302 16.6573 36.1726 13.9913 34.2215 12.2582C32.0799 10.3542 28.6484 10.6228 25.3335 10.8836C24.941 10.9147 24.5523 10.9459 24.1715 10.9731C19.8928 11.269 14.9842 9.90945 14.3153 6.22924C13.9848 4.42607 14.8279 2.8287 15.6399 1.28188C16.1062 0.395743 16.5491 -0.447622 16.7744 -1.31428C17.2483 -3.09814 16.6612 -5.10726 15.3591 -6.51003L17.2634 -6.51026C17.813 -5.71225 18.187 -4.80667 18.3607 -3.85338C18.5343 -2.90009 18.5036 -1.92081 18.2706 -0.980256C18.0026 0.0340852 17.5053 0.982398 17.0235 1.89963C16.2814 3.30655 15.5859 4.63573 15.8309 5.99589C16.3443 8.80169 20.4522 9.81162 24.0547 9.56244C24.4317 9.53519 24.8164 9.50405 25.2011 9.47682C28.691 9.20045 32.6472 8.89295 35.2901 11.2438C37.7193 13.4004 37.673 16.5016 37.6268 19.4979C37.5959 21.7092 37.5612 23.9904 38.533 25.8208C39.9285 28.436 43.2398 30.0601 48.6535 30.7783C49.1121 30.8405 49.5784 30.8987 50.0448 30.9569C53.9466 31.4422 57.9768 31.943 60.9734 34.3716C63.7834 36.6486 64.8914 39.9868 65.9566 43.2161C66.1394 43.7679 66.3221 44.312 66.5087 44.8521C67.003 46.3103 67.6782 47.7006 68.5184 48.9908Z" fill="white"/>
<path d="M4.00306 19.5409C5.77546 21.6859 9.53357 22.4783 12.9029 22.2447C13.2838 22.2174 13.6724 22.1863 14.0649 22.1551C17.3799 21.8943 20.8114 21.6258 22.953 23.5298C24.9041 25.2628 24.8616 27.9288 24.8193 30.7502C24.7846 33.1247 24.7499 35.5808 25.885 37.7142C27.5214 40.7842 31.2097 42.6608 37.1636 43.449C37.6299 43.5111 38.1002 43.5693 38.5704 43.6275C42.243 44.0857 46.0399 44.5593 48.6906 46.7042C51.1703 48.7131 52.2122 51.8569 53.2191 54.8998C53.4019 55.4555 53.5846 56.0112 53.7751 56.5552C53.95 57.0565 54.1366 57.5345 54.331 57.997L55.9943 57.9968C55.7028 57.3633 55.454 56.7299 55.2401 56.1237C55.0535 55.5835 54.8708 55.0395 54.6881 54.4876C53.6229 51.2583 52.5149 47.9201 49.7048 45.6431C46.7082 43.2146 42.6781 42.7138 38.7762 42.2285C38.3099 42.1702 37.8435 42.112 37.3849 42.0499C31.9713 41.3316 28.66 39.7076 27.2645 37.0923C26.2927 35.262 26.3274 32.9807 26.3582 30.7695C26.4045 27.7731 26.4507 24.6719 24.0216 22.5153C21.3786 20.1645 17.4224 20.472 13.9326 20.7483C13.5479 20.7756 13.1631 20.8067 12.7862 20.834C9.18365 21.0832 5.07575 20.0732 4.56241 17.2674C4.31742 15.9073 5.01288 14.5781 5.75498 13.1712C6.23676 12.254 6.73409 11.3056 7.00211 10.2913C7.73238 7.51641 6.50006 4.44254 4.00099 2.76398L4.00122 4.66825C5.36547 6.07491 5.98754 8.13066 5.50586 9.95725C5.28057 10.8239 4.83764 11.6673 4.3714 12.5534C4.24707 12.7905 4.12273 13.0237 4.00229 13.2646L4.00306 19.5409Z" fill="white"/>
<path d="M32.5452 57.9997L30.9324 57.9999C30.8469 57.7473 30.7653 57.4908 30.6797 57.2343C29.6728 54.1915 28.6309 51.0477 26.1512 49.0388C23.5005 46.8939 19.7036 46.4203 16.031 45.9621C15.5608 45.9039 15.0905 45.8457 14.6242 45.7835C9.36987 45.0885 5.87594 43.5423 4.00634 41.0786L4.00586 37.2118C4.12609 37.9837 4.36889 38.7315 4.72508 39.4269C6.12059 42.0421 9.43188 43.6662 14.8455 44.3845C15.3041 44.4466 15.7705 44.5048 16.2368 44.5631C20.1387 45.0484 24.1688 45.5492 27.1654 47.9777C29.9755 50.2547 31.0834 53.5929 32.1487 56.8222C32.2809 57.2186 32.4092 57.6111 32.5452 57.9997Z" fill="white"/>
<path d="M155.952 -6.52756L91.4404 -6.51953L91.4485 57.9923L155.96 57.9843L155.952 -6.52756Z" fill="#3F3D56"/>
<path d="M122.531 -1.85988C122.531 1.77468 121.57 5.34457 119.744 8.48739C117.919 11.6302 115.294 14.2341 112.137 16.0346C108.98 17.8351 105.402 18.7682 101.768 18.7392C98.1333 18.7101 94.5713 17.72 91.4432 15.8692L91.4404 -6.51953L121.998 -6.52333C122.354 -4.99442 122.533 -3.42966 122.531 -1.85988Z" fill="white"/>
<path d="M139.246 23.3988C146.114 23.3979 151.681 17.8294 151.68 10.9612C151.679 4.09296 146.111 -1.47414 139.243 -1.47329C132.374 -1.47243 126.807 4.09606 126.808 10.9643C126.809 17.8325 132.378 23.3996 139.246 23.3988Z" fill="white"/>
<path d="M111.268 46.3311C116.204 46.3305 120.206 42.3282 120.205 37.3916C120.204 32.4551 116.202 28.4537 111.266 28.4543C106.329 28.4549 102.328 32.4573 102.328 37.3938C102.329 42.3304 106.331 46.3317 111.268 46.3311Z" fill="white"/>
<path d="M155.96 47.4137L155.961 57.9843L143.171 57.9859C142.628 56.2856 142.606 54.4616 143.109 52.7489C143.611 51.0361 144.615 49.5129 145.991 48.3756C147.366 47.2383 149.051 46.5389 150.828 46.3674C152.605 46.196 154.392 46.5604 155.96 47.4137Z" fill="white"/>
<path d="M133.807 39.3331C135.095 39.3329 136.139 38.2888 136.138 37.001C136.138 35.7132 135.094 34.6694 133.806 34.6696C132.519 34.6697 131.475 35.7138 131.475 37.0016C131.475 38.2894 132.519 39.3332 133.807 39.3331Z" fill="white"/>
<path d="M243.782 -6.53848L179.271 -6.53046L179.279 57.9814L243.79 57.9734L243.782 -6.53848Z" fill="#3F3D56"/>
<path d="M210.749 -6.53437L210.752 19.8922L179.274 19.8961L179.274 21.4506L212.307 21.4465L212.304 -6.53457L210.749 -6.53437Z" fill="white"/>
<path d="M241.12 57.9738L243.79 54.1765L243.789 51.4756L239.22 57.974L241.12 57.9738ZM230.274 30.1573L215.971 50.5036L226.601 57.9756L229.302 57.9752L218.136 50.1264L230.651 32.3219L243.788 41.5579L243.788 39.6575L230.274 30.1573Z" fill="white"/>
<path d="M206.477 27.5836L198.235 35.8274L206.479 44.0691L214.721 35.8254L206.477 27.5836ZM200.431 35.8271L206.477 29.7794L212.525 35.8256L206.479 41.8734L200.431 35.8271Z" fill="white"/>
<path d="M120.089 27.6359C123.162 27.6355 125.652 25.1447 125.652 22.0725C125.651 19.0003 123.16 16.5101 120.088 16.5105C117.016 16.5109 114.526 19.0017 114.526 22.0739C114.526 25.1461 117.017 27.6363 120.089 27.6359Z" fill="#FFB8B8"/>
<path d="M117.16 24.7085C117.16 24.7085 118.625 32.3205 118.04 33.7844C117.454 35.2484 126.237 33.1979 126.237 33.1979C126.237 33.1979 124.48 25.586 124.772 23.8293C125.065 22.0726 117.16 24.7085 117.16 24.7085Z" fill="#FFB8B8"/>
<path d="M107.503 51.0595L108.089 58.9642L110.997 71.3784L111.897 74.7735L113.361 69.5034L111.895 57.4998L111.397 52.0956L107.503 51.0595Z" fill="#FFB8B8"/>
<path d="M138.244 49.8845L138.245 58.0821C138.245 58.0821 137.368 68.6221 135.611 71.2573C133.855 73.8925 133.268 60.7177 133.268 60.7177L134.643 51.056L138.244 49.8845Z" fill="#FFB8B8"/>
<path d="M112.19 75.3591C112.19 75.3591 110.727 77.1159 111.9 94.975C113.073 112.834 111.318 125.716 115.124 125.716C115.124 125.716 113.954 129.522 117.174 129.814C120.395 130.107 121.859 130.399 122.151 129.521C122.444 128.643 123.029 124.544 122.151 124.544C122.151 124.544 122.151 125.715 122.736 121.031C123.321 116.346 123.318 94.0952 124.782 91.1673L129.467 101.999C129.467 101.999 129.468 106.977 130.347 109.319C131.225 111.661 132.691 125.128 132.691 125.128L132.398 127.178C132.398 127.178 139.425 128.348 139.718 127.177C140.01 126.006 140.01 124.249 139.717 123.663C139.424 123.078 139.424 123.078 140.01 121.907C140.595 120.736 140.595 119.857 140.302 118.979C140.009 118.101 140.007 99.0703 140.007 99.0703C140.007 99.0703 139.418 75.9412 135.905 74.7706C132.392 73.5999 112.19 75.3591 112.19 75.3591Z" fill="#2F2E41"/>
<path d="M126.824 32.3194C126.824 32.3194 118.918 30.8565 117.162 32.3206C115.406 33.7847 108.087 36.7134 108.087 38.1772C108.087 39.6411 111.895 53.9866 111.895 53.9866C111.895 53.9866 109.848 75.6521 111.898 76.2374C113.947 76.8227 117.46 75.0656 121.559 77.1145C125.658 79.1634 137.369 75.3559 137.369 75.3559C137.369 75.3559 132.975 56.6189 134.145 53.1055C135.316 49.592 136.193 37.5882 136.193 37.5882C136.193 37.5882 131.215 32.3189 126.824 32.3194Z" fill="#8985A8"/>
<path d="M110.137 37.2987L108.088 37.8845C108.088 37.8845 103.698 51.6454 105.455 52.2308C107.211 52.8161 112.189 53.9866 112.774 53.9865C113.36 53.9864 110.137 37.2987 110.137 37.2987Z" fill="#8985A8"/>
<path d="M131.508 35.8322L136.192 37.5882C136.192 37.5882 142.342 49.0056 140.878 50.4697C139.415 51.9338 132.974 53.3984 132.974 53.3984L131.508 35.8322Z" fill="#8985A8"/>
<path d="M119.918 15.2025C119.455 15.1187 118.98 15.1398 118.527 15.2641C118.164 15.4248 117.83 15.644 117.538 15.9129C117.008 16.3351 116.442 16.7101 115.847 17.0333C115.373 17.2909 114.863 17.5294 114.532 17.9557C114.375 18.1712 114.25 18.4078 114.16 18.6586C113.59 20.1158 113.437 21.7031 113.718 23.2425C113.75 23.4612 113.816 23.6736 113.913 23.8719C114.218 24.4325 114.89 24.6533 115.456 24.9471C116.531 25.505 117.346 26.4444 118.227 27.2747C118.555 27.6015 118.923 27.8851 119.323 28.1184C120.58 28.804 122.118 28.5801 123.53 28.3374C123.63 28.3372 123.729 28.3172 123.821 28.2786C123.913 28.2399 123.997 28.1834 124.067 28.1122C124.138 28.041 124.193 27.9567 124.231 27.864C124.268 27.7712 124.287 27.672 124.286 27.5719L125.4 22.5593C125.602 21.8167 125.698 21.0492 125.685 20.2797C125.607 19.0629 124.948 17.3775 124.055 16.5133C123.015 15.5063 121.278 15.3463 119.918 15.2025Z" fill="#2F2E41"/>
<path d="M82.2591 133.72C80.9391 133.721 79.6486 133.329 78.5509 132.596C77.4532 131.863 76.5975 130.821 76.0922 129.601C75.5869 128.381 75.4546 127.039 75.7119 125.745C75.9693 124.45 76.6048 123.261 77.5382 122.327C78.4715 121.393 79.6607 120.758 80.9554 120.5C82.2501 120.242 83.5921 120.374 84.8117 120.879C86.0314 121.384 87.0739 122.24 87.8075 123.337C88.541 124.435 88.9326 125.725 88.9328 127.045C88.931 128.815 88.2274 130.511 86.9763 131.763C85.7251 133.014 84.0287 133.718 82.2591 133.72ZM82.2575 120.885C81.039 120.885 79.8479 121.247 78.8348 121.924C77.8217 122.601 77.0321 123.563 76.566 124.689C76.0998 125.815 75.9779 127.054 76.2158 128.249C76.4537 129.444 77.0406 130.542 77.9023 131.403C78.7641 132.265 79.8619 132.851 81.0571 133.089C82.2523 133.326 83.491 133.204 84.6167 132.738C85.7425 132.271 86.7046 131.482 87.3815 130.468C88.0583 129.455 88.4195 128.264 88.4194 127.045C88.4173 125.412 87.7674 123.846 86.6122 122.691C85.4571 121.536 83.891 120.887 82.2575 120.885Z" fill="#2F2E41"/>
<path d="M194.684 133.999C193.364 133.999 192.073 133.608 190.976 132.875C189.878 132.142 189.022 131.099 188.517 129.88C188.012 128.66 187.879 127.318 188.137 126.023C188.394 124.729 189.03 123.539 189.963 122.606C190.896 121.672 192.085 121.036 193.38 120.779C194.675 120.521 196.017 120.653 197.237 121.158C198.456 121.663 199.499 122.518 200.232 123.616C200.966 124.713 201.357 126.004 201.358 127.324C201.356 129.094 200.652 130.79 199.401 132.042C198.15 133.293 196.454 133.997 194.684 133.999ZM194.682 121.164C193.464 121.164 192.273 121.525 191.26 122.202C190.246 122.88 189.457 123.842 188.991 124.968C188.525 126.094 188.403 127.332 188.641 128.527C188.878 129.723 189.465 130.82 190.327 131.682C191.189 132.543 192.287 133.13 193.482 133.368C194.677 133.605 195.916 133.483 197.042 133.017C198.167 132.55 199.129 131.76 199.806 130.747C200.483 129.734 200.844 128.543 200.844 127.324C200.842 125.691 200.192 124.125 199.037 122.97C197.882 121.815 196.316 121.165 194.682 121.164Z" fill="#2F2E41"/>
<path d="M194.683 116.753C195.959 116.753 196.993 115.718 196.993 114.442C196.993 113.166 195.958 112.132 194.682 112.132C193.406 112.133 192.372 113.167 192.372 114.443C192.373 115.719 193.407 116.753 194.683 116.753Z" fill="white"/>
<path d="M194.684 121.117C193.364 121.117 192.073 120.726 190.976 119.993C189.878 119.26 189.022 118.217 188.517 116.998C188.012 115.778 187.879 114.436 188.137 113.141C188.394 111.847 189.03 110.657 189.963 109.724C190.896 108.79 192.085 108.154 193.38 107.897C194.675 107.639 196.017 107.771 197.237 108.276C198.456 108.781 199.499 109.636 200.232 110.734C200.966 111.831 201.357 113.122 201.358 114.442C201.356 116.211 200.652 117.908 199.401 119.16C198.15 120.411 196.454 121.115 194.684 121.117ZM194.682 108.282C193.464 108.282 192.273 108.643 191.26 109.32C190.246 109.998 189.457 110.96 188.991 112.086C188.525 113.212 188.403 114.45 188.641 115.645C188.878 116.841 189.465 117.938 190.327 118.8C191.189 119.661 192.287 120.248 193.482 120.486C194.677 120.723 195.916 120.601 197.042 120.135C198.167 119.668 199.129 118.878 199.806 117.865C200.483 116.852 200.844 115.661 200.844 114.442C200.842 112.809 200.192 111.243 199.037 110.088C197.882 108.933 196.316 108.283 194.682 108.282Z" fill="#2F2E41"/>
</g>
</g>
<defs>
<filter id="filter0_d_1213_286" x="0" y="0" width="247.8" height="131.432" filterUnits="userSpaceOnUse" color-interpolation-filters="sRGB">
<feFlood flood-opacity="0" result="BackgroundImageFix"/>
<feColorMatrix in="SourceAlpha" type="matrix" values="0 0 0 0 0 0 0 0 0 0 0 0 0 0 0 0 0 0 127 0" result="hardAlpha"/>
<feOffset dy="4"/>
<feGaussianBlur stdDeviation="2"/>
<feComposite in2="hardAlpha" operator="out"/>
<feColorMatrix type="matrix" values="0 0 0 0 0 0 0 0 0 0 0 0 0 0 0 0 0 0 0.25 0"/>
<feBlend mode="normal" in2="BackgroundImageFix" result="effect1_dropShadow_1213_286"/>
<feBlend mode="normal" in="SourceGraphic" in2="effect1_dropShadow_1213_286" result="shape"/>
</filter>
<clipPath id="clip0_1213_286">
<rect width="239.782" height="123.407" rx="20" transform="matrix(1 -0.000104867 0.000147559 1 4 0.0251465)" fill="white"/>
</clipPath>
</defs>
</svg>
