<svg width="157" height="182" viewBox="0 0 157 182" fill="none" xmlns="http://www.w3.org/2000/svg">
<g clip-path="url(#clip0_1126_3947)">
<path d="M157 69.3598C157 69.8761 156.994 70.3915 156.982 70.9061C156.976 71.2424 156.966 71.5788 156.953 71.9152C156.95 72.0117 156.948 72.1055 156.943 72.202C156.935 72.3871 156.927 72.5697 156.919 72.7496C156.862 73.9516 156.773 75.145 156.653 76.3297C156.648 76.3871 156.643 76.4444 156.638 76.4992C156.624 76.6165 156.614 76.7339 156.598 76.8512C156.562 77.2032 156.523 77.5552 156.478 77.902C156.45 78.1367 156.421 78.3688 156.39 78.6034C156.374 78.7156 156.359 78.8277 156.345 78.9372C156.327 79.0598 156.312 79.1797 156.293 79.2996C156.285 79.3518 156.278 79.404 156.27 79.4587C156.244 79.636 156.218 79.8159 156.189 79.9932C156.155 80.2253 156.119 80.4548 156.079 80.6868C156.043 80.9163 156.004 81.1458 155.962 81.3752C155.923 81.6047 155.881 81.8341 155.84 82.0636C155.798 82.2957 155.754 82.5251 155.709 82.7546C155.485 83.8915 155.235 85.0188 154.958 86.1365C154.849 86.572 154.737 87.0066 154.622 87.4403C154.432 88.1443 154.231 88.8449 154.02 89.5419C153.96 89.7349 153.9 89.9279 153.84 90.1182C153.772 90.3372 153.701 90.5563 153.631 90.7727C153.561 90.9917 153.49 91.2081 153.417 91.4246C153.344 91.641 153.271 91.8574 153.196 92.0738C153.123 92.2876 153.047 92.5041 152.969 92.7179C152.893 92.9343 152.815 93.1481 152.737 93.3619C152.656 93.5758 152.578 93.7896 152.497 94.0008C152.335 94.4284 152.169 94.8517 151.999 95.2706C151.915 95.4819 151.829 95.6931 151.741 95.9017C151.394 96.7413 151.031 97.5713 150.651 98.3918C150.567 98.5744 150.484 98.7569 150.398 98.9368C150.34 99.0567 150.286 99.1741 150.228 99.294C150.132 99.4922 150.038 99.6878 149.941 99.8833C149.845 100.081 149.746 100.282 149.644 100.483C149.443 100.879 149.239 101.275 149.031 101.669C148.825 102.063 148.614 102.457 148.398 102.845C148.181 103.234 147.962 103.623 147.741 104.006C147.629 104.199 147.516 104.392 147.404 104.582C146.953 105.346 146.487 106.101 146.007 106.848C145.53 107.591 145.037 108.326 144.528 109.051C144.275 109.414 144.017 109.776 143.756 110.133C143.652 110.277 143.548 110.418 143.444 110.558C143.316 110.736 143.183 110.91 143.05 111.085C137.399 118.602 130.277 124.889 122.119 129.566C113.96 134.243 104.935 137.21 95.5935 138.288C86.2516 139.365 76.7882 138.531 67.7792 135.835C58.7702 133.139 50.404 128.637 43.1899 122.605C42.4285 121.969 41.681 121.317 40.9475 120.65C36.2401 116.363 32.1421 111.452 28.7678 106.053C28.348 105.377 27.936 104.694 27.5396 104.006C21.4552 93.4744 18.261 81.5225 18.2804 69.3598C18.2804 31.0529 49.3332 1.27314e-05 87.6402 1.27314e-05C99.1667 -0.00697331 110.513 2.86121 120.652 8.34485C130.79 13.8285 139.401 21.7544 145.704 31.4049C145.819 31.5796 145.934 31.7569 146.048 31.9342C152.315 41.6875 156.022 52.8636 156.825 64.429C156.943 66.0561 157.001 67.6997 157 69.3598Z" fill="#F2F2F2"/>
<path d="M146.049 31.9341H49.9751C49.906 31.9324 49.8403 31.9038 49.7921 31.8544C49.7438 31.8049 49.7168 31.7385 49.7168 31.6694C49.7168 31.6003 49.7438 31.534 49.7921 31.4845C49.8403 31.4351 49.906 31.4065 49.9751 31.4048H145.705C145.819 31.5795 145.934 31.7568 146.049 31.9341Z" fill="#CACACA"/>
<path d="M55.8039 28.2286C57.3772 28.2286 58.6527 26.9247 58.6527 25.3163C58.6527 23.7079 57.3772 22.4041 55.8039 22.4041C54.2305 22.4041 52.9551 23.7079 52.9551 25.3163C52.9551 26.9247 54.2305 28.2286 55.8039 28.2286Z" fill="#3F3D56"/>
<path d="M65.6447 28.2286C67.218 28.2286 68.4935 26.9247 68.4935 25.3163C68.4935 23.7079 67.218 22.4041 65.6447 22.4041C64.0713 22.4041 62.7959 23.7079 62.7959 25.3163C62.7959 26.9247 64.0713 28.2286 65.6447 28.2286Z" fill="#3F3D56"/>
<path d="M75.4855 28.2286C77.0589 28.2286 78.3343 26.9247 78.3343 25.3163C78.3343 23.7079 77.0589 22.4041 75.4855 22.4041C73.9122 22.4041 72.6367 23.7079 72.6367 25.3163C72.6367 26.9247 73.9122 28.2286 75.4855 28.2286Z" fill="#3F3D56"/>
<path d="M156.825 64.4287C154.319 65.5682 152.074 67.4091 150.113 69.941C147.848 72.8692 145.42 74.9318 142.94 76.3294C142.823 76.3946 142.708 76.4572 142.591 76.5197C140.368 77.7177 137.93 78.4647 135.417 78.7179C134.659 78.7944 133.896 78.8309 133.133 78.8274C132.815 78.8248 132.497 78.817 132.182 78.8013C131.433 78.7648 130.693 78.6918 129.965 78.5875C125.788 77.993 122.01 76.3868 119.212 74.877C115.378 72.7627 111.217 71.3066 106.902 70.5694C106.13 70.4416 105.36 70.3417 104.592 70.2696C104.273 70.2383 103.958 70.2148 103.642 70.1939C102.868 70.1418 102.094 70.1175 101.322 70.1209C100.925 70.1235 100.532 70.1314 100.135 70.147C93.4757 70.4078 84.7901 72.306 77.0014 78.9369C76.8971 79.0256 76.7954 79.1142 76.6911 79.2029C76.5947 79.2863 76.4982 79.3724 76.4017 79.4584C75.1689 80.5543 74.0071 81.7274 72.9233 82.9708C71.6808 84.3948 70.5311 85.8972 69.4814 87.4687C68.2348 89.3086 66.7788 90.9974 65.1425 92.5012C62.7222 94.7347 60.7841 97.4392 59.4469 100.449C58.1098 103.459 57.402 106.71 57.3669 110.003V110.133C57.3643 110.274 57.3643 110.417 57.3643 110.558H143.446C143.55 110.417 143.655 110.277 143.756 110.133C144.017 109.776 144.275 109.414 144.528 109.051C145.037 108.326 145.529 107.592 146.007 106.848C146.489 106.102 146.955 105.347 147.404 104.582C147.516 104.391 147.628 104.198 147.741 104.006C147.962 103.622 148.181 103.234 148.398 102.845C148.614 102.457 148.825 102.063 149.031 101.669C149.24 101.275 149.444 100.88 149.644 100.483C149.746 100.282 149.845 100.081 149.941 99.8831C150.038 99.6875 150.132 99.4919 150.228 99.2938C150.286 99.1738 150.34 99.0565 150.398 98.9365C150.484 98.7566 150.567 98.5741 150.651 98.3916C151.031 97.5702 151.395 96.7402 151.741 95.9014C151.829 95.6928 151.915 95.4816 151.999 95.2704C152.168 94.8506 152.334 94.4273 152.497 94.0005C152.578 93.7893 152.656 93.5755 152.737 93.3617C152.815 93.1479 152.893 92.934 152.969 92.7176C153.047 92.5038 153.123 92.2874 153.196 92.0736C153.271 91.8571 153.344 91.6407 153.417 91.4243C153.49 91.2079 153.561 90.9915 153.631 90.7724C153.701 90.556 153.772 90.337 153.84 90.1179C153.9 89.9276 153.96 89.7346 154.019 89.5417C154.231 88.8455 154.431 88.1449 154.622 87.44C154.737 87.0072 154.849 86.5726 154.958 86.1363C155.235 85.0203 155.485 83.8929 155.709 82.7543C155.753 82.5249 155.798 82.2954 155.84 82.0633C155.881 81.8339 155.923 81.6044 155.962 81.3749C156.004 81.1455 156.043 80.9161 156.079 80.6866C156.119 80.4545 156.155 80.2251 156.189 79.993C156.218 79.8157 156.244 79.6358 156.27 79.4584C156.278 79.4037 156.285 79.3515 156.293 79.2994C156.311 79.1768 156.327 79.0569 156.343 78.9369C156.358 78.8248 156.374 78.7127 156.39 78.6032C156.421 78.3685 156.45 78.1364 156.478 77.9018C156.523 77.555 156.562 77.2029 156.598 76.8509H156.601C156.611 76.7336 156.624 76.6163 156.637 76.4989C156.643 76.4442 156.648 76.3868 156.653 76.3294C156.773 75.1456 156.862 73.9523 156.919 72.7493C156.927 72.5694 156.935 72.3869 156.943 72.2017C156.948 72.1053 156.95 72.0114 156.953 71.9149C156.966 71.5785 156.976 71.2422 156.982 70.9058C156.995 70.3921 157.001 69.8767 157 69.3596C157 67.7012 156.942 66.0575 156.825 64.4287Z" fill="white"/>
<path d="M76.1115 81.9163H75.1602V109.801H76.1115V81.9163Z" fill="#3F3D56"/>
<path d="M104.592 68.8933H103.641V109.801H104.592V68.8933Z" fill="#3F3D56"/>
<path d="M133.132 77.4553H132.181V109.801H133.132V77.4553Z" fill="#3F3D56"/>
<path d="M104.177 72.459C105.784 72.459 107.087 71.156 107.087 69.5487C107.087 67.9414 105.784 66.6384 104.177 66.6384C102.57 66.6384 101.267 67.9414 101.267 69.5487C101.267 71.156 102.57 72.459 104.177 72.459Z" fill="#3F3D56"/>
<path d="M132.717 80.5457C134.324 80.5457 135.627 79.2427 135.627 77.6354C135.627 76.0281 134.324 74.7251 132.717 74.7251C131.11 74.7251 129.807 76.0281 129.807 77.6354C129.807 79.2427 131.11 80.5457 132.717 80.5457Z" fill="#3F3D56"/>
<path d="M75.1144 82.4798C76.7217 82.4798 78.0247 81.1768 78.0247 79.5695C78.0247 77.9622 76.7217 76.6592 75.1144 76.6592C73.5071 76.6592 72.2041 77.9622 72.2041 79.5695C72.2041 81.1768 73.5071 82.4798 75.1144 82.4798Z" fill="#3F3D56"/>
<path d="M143.756 110.133C143.652 110.277 143.548 110.418 143.444 110.558C143.316 110.736 143.183 110.91 143.05 111.085H57.2705V110.133H143.756Z" fill="#3F3D56"/>
<path d="M33.1451 178.647H35.9015L37.2128 168.015L33.1445 168.015L33.1451 178.647Z" fill="#FFB8B8"/>
<path d="M40.3171 178.76C39.997 178.437 39.6159 178.181 39.1958 178.007C38.7754 177.835 38.3255 177.746 37.8712 177.746L36.2467 176.515L36.1607 176.549L33.2194 177.746H32.4424V181.318H41.3314V181.206C41.3327 180.752 41.2438 180.301 41.0696 179.882C40.8955 179.462 40.6397 179.081 40.3171 178.76Z" fill="#2F2E41"/>
<path d="M45.9507 178.647H48.7071L50.0184 168.015L45.9502 168.015L45.9507 178.647Z" fill="#FFB8B8"/>
<path d="M53.1244 178.76C52.8039 178.437 52.4217 178.18 52.0005 178.007C51.5803 177.834 51.1302 177.746 50.6759 177.746L49.054 176.515L48.9654 176.552L46.0241 177.746H45.2471L45.2497 181.318H54.1361V181.206C54.1373 180.752 54.0485 180.302 53.8749 179.882C53.7012 179.462 53.4462 179.081 53.1244 178.76Z" fill="#2F2E41"/>
<path d="M48.1547 120.462L26.4971 121.027L26.8737 131.573C26.8737 131.573 26.4971 134.398 27.2504 135.151C28.0037 135.905 28.3803 135.905 28.0037 137.223C27.627 138.541 29.6171 140.694 29.3754 140.936C29.1337 141.178 28.5687 142.496 28.5687 142.496L30.4519 153.231C30.4519 153.231 31.7702 171.875 32.1469 172.252C32.5235 172.629 32.9002 172.252 32.5235 173.194C32.1469 174.135 31.7702 173.759 32.1469 174.135C32.4805 174.495 32.7949 174.872 33.0885 175.265H37.6417C37.6417 175.265 37.985 173.382 37.985 173.194C37.985 173.005 38.3617 171.875 38.3617 171.687C38.3617 171.499 38.0288 171.166 38.0288 171.166C37.9137 170.783 37.836 170.39 37.7967 169.992C37.7967 169.615 36.6667 155.114 36.6667 155.114L38.9267 136.281L44.3882 154.737C44.3882 154.737 44.3882 170.934 44.7648 171.31C45.1415 171.687 45.1415 171.499 44.9531 172.252C44.7648 173.005 44.0115 172.817 44.5765 173.382C45.1415 173.947 45.3298 173.005 45.1415 173.947L44.9531 174.888L50.603 174.969C50.603 174.969 51.3563 173.382 50.9796 172.817C50.603 172.252 50.6256 172.406 51.0851 171.482C51.5446 170.557 51.7329 170.369 51.5446 170.18C51.3563 169.992 51.3563 168.99 51.3563 168.99L50.4146 150.971C50.4146 150.971 50.2263 131.95 50.2263 131.385C50.2121 131.094 50.2657 130.804 50.3828 130.538V129.771L49.6613 127.053L48.1547 120.462Z" fill="#2F2E41"/>
<path d="M72.6639 79.3874C72.5598 79.6767 72.3935 79.9397 72.1768 80.1578C71.9602 80.3759 71.6983 80.5438 71.4097 80.6497C71.121 80.7557 70.8127 80.7971 70.5064 80.7709C70.2 80.7448 69.9032 80.6519 69.6366 80.4986L60.2355 88.3746L59.7246 84.5248L68.9197 77.4859C69.2069 77.0552 69.642 76.7448 70.1427 76.6136C70.6434 76.4823 71.1749 76.5392 71.6364 76.7736C72.0979 77.008 72.4574 77.4036 72.6468 77.8853C72.8361 78.367 72.8422 78.9015 72.6639 79.3874Z" fill="#FFB8B8"/>
<path d="M31.2112 82.6382C34.4355 82.6382 37.0493 80.0244 37.0493 76.8001C37.0493 73.5757 34.4355 70.9619 31.2112 70.9619C27.9869 70.9619 25.373 73.5757 25.373 76.8001C25.373 80.0244 27.9869 82.6382 31.2112 82.6382Z" fill="#FFB8B8"/>
<path d="M35.9444 70.9898C35.4009 69.6943 33.0716 68.9252 29.3858 69.041C25.6999 69.1569 25.0545 73.5523 25.0545 73.5523C23.0243 75.4445 26.302 81.3524 26.8706 80.5379C27.4392 79.7233 28.394 80.4933 28.394 80.4933L27.4841 75.3756C28.445 75.7452 29.4783 75.9934 30.382 75.5628L28.8847 74.7621L32.6077 75.2254L31.0723 74.0442C31.1095 74.0319 31.1468 74.0191 31.184 74.0066C31.7997 74.2721 32.4592 74.4218 33.1292 74.4482C33.912 74.4424 34.7438 74.0756 35.0719 73.3648C35.1591 73.1696 35.2063 72.959 35.2108 72.7452C36.2901 73.0956 36.8568 74.36 36.8568 74.36C36.6519 73.2121 36.3466 72.0843 35.9444 70.9898Z" fill="#2F2E41"/>
<path d="M35.8847 82.8991C34.5809 82.8991 33.7413 83.079 31.7127 83.4206C27.9683 84.0516 30.2107 87.6095 30.2107 87.6095C30.2107 87.6095 30.3802 87.5234 29.9213 87.6095C29.4624 87.6955 27.8979 89.0488 27.8979 89.0488L25.1 91.5338C20.8837 94.8427 21.8276 100.006 21.8276 100.006L27.9761 106.193L25.2825 118.608C25.2825 118.608 26.4272 120.451 25.8353 121.278C25.2434 122.104 31.0503 121.867 31.0503 121.867C35.0581 123.653 49.1778 122.143 49.1778 122.143C48.9822 121.632 47.0917 117.671 47.0917 117.671C47.9131 116.253 47.1309 114.203 47.1309 114.203C47.1309 114.203 46.3147 104.509 45.7932 103.168C45.2717 101.828 47.1283 94.5663 48.3486 94.6445C49.5689 94.7228 57.4514 90.702 57.4514 90.702C57.4514 90.702 57.2532 90.3865 59.8555 89.3226C61.3502 88.7353 62.7206 87.871 63.8946 86.7751L64.9636 84.6395C64.45 84.8377 62.716 81.5679 62.716 81.5679L61.9598 81.8561L61.5217 81.7295C61.5217 81.7295 58.1033 82.7021 57.4044 83.4114C56.7056 84.1206 56.471 83.9224 55.8399 84.0815C55.2089 84.2406 55.1307 84.6838 54.9325 84.6343C54.7343 84.5848 54.3823 85.1845 54.1059 85.1063C53.8295 85.028 53.2376 85.3435 52.8439 85.4218C52.4502 85.5 49.6523 86.6838 49.6523 86.6838C47.9209 85.8077 43.2274 86.1623 43.2274 86.1623C43.2274 86.1623 41.6916 85.2575 41.2561 86.1623C41.139 86.4194 40.9508 86.6376 40.7139 86.7915C40.4769 86.9453 40.201 87.0282 39.9185 87.0306L38.0463 86.2301C37.9375 86.6273 35.8954 82.4875 35.8847 82.8991Z" fill="#3F3D56"/>
<path d="M14.9484 167.139L14.6882 161.289C11.9761 159.839 8.95117 159.074 5.87598 159.058C10.1084 162.519 9.57943 169.189 12.4489 173.842C13.355 175.287 14.5745 176.509 16.017 177.418C17.4596 178.327 19.0883 178.9 20.7823 179.094L24.3241 181.262C24.8101 178.553 24.7029 175.77 24.01 173.106C23.3171 170.442 22.0549 167.96 20.3104 165.831C19.3199 164.646 18.1841 163.591 16.9299 162.69C16.0816 164.927 14.9484 167.139 14.9484 167.139Z" fill="#F2F2F2"/>
<path d="M1.37277e-06 181.412C-0.000120157 181.453 0.00782867 181.493 0.0233805 181.531C0.0389323 181.569 0.0617817 181.603 0.0906213 181.632C0.119461 181.661 0.153715 181.683 0.191419 181.699C0.229122 181.715 0.269528 181.723 0.310312 181.722H74.1785C74.2608 181.722 74.3397 181.69 74.3979 181.632C74.4561 181.573 74.4888 181.494 74.4888 181.412C74.4888 181.33 74.4561 181.251 74.3979 181.193C74.3397 181.134 74.2608 181.102 74.1785 181.102H0.310312C0.269528 181.102 0.229122 181.11 0.191419 181.125C0.153716 181.141 0.119461 181.164 0.0906213 181.192C0.061782 181.221 0.0389328 181.255 0.0233805 181.293C0.00782817 181.331 -0.000118773 181.371 1.37277e-06 181.412Z" fill="#CCCCCC"/>
<path d="M77.0499 78.937H75.4854V79.4585H77.0499V78.937Z" fill="#3F3D56"/>
<path d="M80.209 78.937V79.4585H83.3693V78.937H80.209ZM86.5296 78.937V79.4585H89.6873V78.937H86.5296ZM92.8476 78.937V79.4585H96.0079V78.937H92.8476ZM99.1656 78.937V79.4585H102.326V78.937H99.1656ZM105.486 78.937V79.4585H108.644V78.937H105.486ZM111.804 78.937V79.4585H114.964V78.937H111.804ZM118.122 78.937V79.4585H121.283V78.937H118.122ZM124.443 78.937V79.4585H127.6V78.937H124.443ZM130.761 78.937V79.4585H133.921V78.937H130.761ZM137.079 78.937V79.4585H140.239V78.937H137.079ZM143.397 78.937V79.4585H146.557V78.937H143.397ZM149.717 78.937V79.4585H152.875V78.937H149.717ZM156.035 78.937V79.4585H156.27C156.278 79.4038 156.286 79.3516 156.294 79.2995C156.312 79.1795 156.327 79.0596 156.346 78.937H156.035Z" fill="#3F3D56"/>
<path d="M104.169 68.5068H102.604V69.0283H104.169V68.5068Z" fill="#3F3D56"/>
<path d="M107.327 68.5068V69.0283H110.487V68.5068H107.327ZM113.648 68.5068V69.0283H116.805V68.5068H113.648ZM119.966 68.5068V69.0283H123.126V68.5068H119.966ZM126.284 68.5068V69.0283H129.444V68.5068H126.284ZM132.604 68.5068V69.0283H135.762V68.5068H132.604ZM138.922 68.5068V69.0283H142.083V68.5068H138.922ZM145.24 68.5068V69.0283H148.401V68.5068H145.24ZM151.561 68.5068V69.0283H154.719V68.5068H151.561Z" fill="#3F3D56"/>
<path d="M133.111 76.3296H131.547V76.8511H133.111V76.3296Z" fill="#3F3D56"/>
<path d="M136.271 76.3296V76.8511H139.431V76.3296H136.271ZM142.591 76.3296V76.8511H145.749V76.3296H142.591ZM148.909 76.3296V76.8511H152.069V76.3296H148.909ZM155.227 76.3296V76.8511H156.601C156.612 76.7338 156.625 76.6164 156.638 76.4991C156.643 76.4443 156.648 76.387 156.653 76.3296H155.227Z" fill="#3F3D56"/>
<path d="M39.9229 130.717V113.922C39.9232 113.582 40.0584 113.256 40.2988 113.016C40.5392 112.775 40.8651 112.64 41.205 112.64H53.8888C54.2287 112.64 54.5546 112.775 54.795 113.016C55.0354 113.256 55.1706 113.582 55.171 113.922V130.717C55.1706 131.057 55.0354 131.383 54.795 131.623C54.5546 131.863 54.2287 131.999 53.8888 131.999H41.205C40.8651 131.999 40.5392 131.863 40.2988 131.623C40.0584 131.383 39.9232 131.057 39.9229 130.717Z" fill="#E6E6E6"/>
<path d="M40.8955 125.644V114.847C40.8959 114.528 41.0225 114.223 41.2476 113.998C41.4727 113.773 41.7779 113.646 42.0963 113.646H52.997C53.3153 113.646 53.6205 113.773 53.8457 113.998C54.0708 114.223 54.1974 114.528 54.1978 114.847V129.792C54.1974 130.11 54.0708 130.415 53.8457 130.641C53.6205 130.866 53.3153 130.992 52.997 130.993H46.2442C44.8261 130.991 43.4666 130.427 42.4639 129.424C41.4612 128.422 40.8971 127.062 40.8955 125.644Z" fill="white"/>
<path d="M42.6611 117.859C42.6615 117.548 42.7852 117.25 43.0052 117.03C43.2252 116.81 43.5234 116.686 43.8345 116.686H51.3963C51.7075 116.686 52.0059 116.81 52.226 117.03C52.4461 117.25 52.5697 117.548 52.5697 117.859C52.5697 118.171 52.4461 118.469 52.226 118.689C52.0059 118.909 51.7075 119.033 51.3963 119.033H43.8345C43.5234 119.032 43.2252 118.909 43.0052 118.689C42.7852 118.469 42.6615 118.171 42.6611 117.859Z" fill="#E6E6E6"/>
<path d="M42.6611 121.51C42.6615 121.199 42.7852 120.9 43.0052 120.68C43.2252 120.46 43.5234 120.337 43.8345 120.336H51.3963C51.7075 120.336 52.0059 120.46 52.226 120.68C52.4461 120.9 52.5697 121.199 52.5697 121.51C52.5697 121.821 52.4461 122.119 52.226 122.34C52.0059 122.56 51.7075 122.683 51.3963 122.683H43.8345C43.5234 122.683 43.2252 122.559 43.0052 122.339C42.7852 122.119 42.6615 121.821 42.6611 121.51Z" fill="#E6E6E6"/>
<path d="M42.6611 125.161C42.6615 124.85 42.7852 124.551 43.0052 124.331C43.2252 124.111 43.5234 123.988 43.8345 123.987H51.3963C51.7075 123.987 52.0059 124.111 52.226 124.331C52.4461 124.551 52.5697 124.849 52.5697 125.161C52.5697 125.472 52.4461 125.77 52.226 125.99C52.0059 126.21 51.7075 126.334 51.3963 126.334H43.8345C43.5234 126.334 43.2252 126.21 43.0052 125.99C42.7852 125.77 42.6615 125.472 42.6611 125.161Z" fill="#E6E6E6"/>
<path d="M40.2217 124.85C39.9365 124.855 39.6536 124.798 39.3929 124.682C39.1323 124.566 38.9002 124.394 38.713 124.179C38.5259 123.964 38.3882 123.71 38.3097 123.436C38.2312 123.162 38.2138 122.874 38.2587 122.592L27.4297 116.663L30.5991 114.948L40.6342 120.976C41.1025 121.082 41.5153 121.357 41.7944 121.748C42.0735 122.139 42.1996 122.618 42.1488 123.096C42.0979 123.573 41.8737 124.016 41.5185 124.339C41.1633 124.662 40.7019 124.844 40.2217 124.85Z" fill="#FFB8B8"/>
<path d="M33.9254 120.467L30.0853 119.785L28.7104 118.642L27.7856 118.171L24.5985 115.934L24.589 115.905L19.5249 100.936C19.2924 99.7066 19.5386 98.4349 20.2131 97.3811C20.8876 96.3274 21.9394 95.5714 23.1531 95.2679C23.8243 95.1009 24.5232 95.078 25.2039 95.2006C25.8846 95.3233 26.5316 95.5886 27.1023 95.9793C27.673 96.37 28.1545 96.8772 28.5151 97.4673C28.8756 98.0575 29.1071 98.7174 29.1943 99.4035L30.8241 112.233L33.5256 115.023L34.7077 115.252L34.9797 116.525L36.0114 118.12L33.9254 120.467Z" fill="#3F3D56"/>
</g>
<defs>
<clipPath id="clip0_1126_3947">
<rect width="157" height="181.722" fill="white"/>
</clipPath>
</defs>
</svg>
