<svg width="19" height="20" viewBox="0 0 19 20" fill="none" xmlns="http://www.w3.org/2000/svg">
<path d="M8.06413 0.871415C8.47135 0.545191 8.97756 0.367432 9.49934 0.367432C10.0211 0.367432 10.5273 0.545191 10.9346 0.871415L17.8252 6.38391C18.3699 6.81966 18.6875 7.47985 18.6875 8.1781V17.3905C18.6875 17.9997 18.4455 18.5839 18.0148 19.0147C17.584 19.4454 16.9998 19.6874 16.3906 19.6874H11.7969C11.5358 19.6874 11.2854 19.5837 11.1008 19.3991C10.9162 19.2145 10.8125 18.9641 10.8125 18.703V11.8124H8.1875V18.703C8.1875 18.9641 8.08379 19.2145 7.89918 19.3991C7.71458 19.5837 7.4642 19.6874 7.20312 19.6874H2.60938C2.00021 19.6874 1.41599 19.4454 0.985239 19.0147C0.554491 18.5839 0.3125 17.9997 0.3125 17.3905V8.17679C0.3125 7.47985 0.630125 6.81966 1.17481 6.38391L8.06413 0.871415ZM9.70475 2.40835C9.64661 2.36192 9.57441 2.33663 9.5 2.33663C9.42559 2.33663 9.35339 2.36192 9.29525 2.40835L2.40463 7.92085C2.36602 7.95168 2.33488 7.99082 2.31351 8.03537C2.29215 8.07991 2.28112 8.1287 2.28125 8.1781V17.3905C2.28125 17.5717 2.42825 17.7187 2.60938 17.7187H6.21875V10.828C6.21875 10.567 6.32246 10.3166 6.50707 10.132C6.69167 9.94738 6.94205 9.84367 7.20312 9.84367H11.7969C12.0579 9.84367 12.3083 9.94738 12.4929 10.132C12.6775 10.3166 12.7812 10.567 12.7812 10.828V17.7187H16.3906C16.4776 17.7187 16.5611 17.6841 16.6226 17.6226C16.6842 17.561 16.7188 17.4776 16.7188 17.3905V8.17679C16.7187 8.12761 16.7076 8.07908 16.6862 8.03478C16.6648 7.99047 16.6338 7.95154 16.5954 7.92085L9.70475 2.40835Z" fill="white"/>
</svg>
